<?xml version="1.0" encoding="UTF-8" standalone="no"?>
<!-- Created with Inkscape (http://www.inkscape.org/) -->

<svg
   xmlns:dc="http://purl.org/dc/elements/1.1/"
   xmlns:cc="http://creativecommons.org/ns#"
   xmlns:rdf="http://www.w3.org/1999/02/22-rdf-syntax-ns#"
   xmlns:svg="http://www.w3.org/2000/svg"
   xmlns="http://www.w3.org/2000/svg"
   xmlns:sodipodi="http://sodipodi.sourceforge.net/DTD/sodipodi-0.dtd"
   xmlns:inkscape="http://www.inkscape.org/namespaces/inkscape"
   width="421.78625"
   height="312.97623"
   id="svg2"
   version="1.1"
   inkscape:version="0.47 r22583"
   sodipodi:docname="New document 1">
  <defs
     id="defs4">
    <marker
       inkscape:stockid="Arrow1Mend"
       orient="auto"
       refY="0"
       refX="0"
       id="Arrow1Mend"
       style="overflow:visible">
      <path
         id="path3648"
         d="M 0,0 5,-5 -12.5,0 5,5 0,0 z"
         style="fill-rule:evenodd;stroke:#000000;stroke-width:1pt;marker-start:none"
         transform="matrix(-0.4,0,0,-0.4,-4,0)" />
    </marker>
    <inkscape:perspective
       sodipodi:type="inkscape:persp3d"
       inkscape:vp_x="0 : 526.18109 : 1"
       inkscape:vp_y="0 : 1000 : 0"
       inkscape:vp_z="744.09448 : 526.18109 : 1"
       inkscape:persp3d-origin="372.04724 : 350.78739 : 1"
       id="perspective10" />
  </defs>
  <sodipodi:namedview
     id="base"
     pagecolor="#ffffff"
     bordercolor="#666666"
     borderopacity="1.0"
     inkscape:pageopacity="0.0"
     inkscape:pageshadow="2"
     inkscape:zoom="0.98994949"
     inkscape:cx="286.14478"
     inkscape:cy="130.49289"
     inkscape:document-units="px"
     inkscape:current-layer="layer1"
     showgrid="false"
     inkscape:window-width="714"
     inkscape:window-height="845"
     inkscape:window-x="0"
     inkscape:window-y="0"
     inkscape:window-maximized="0" />
  <metadata
     id="metadata7">
    <rdf:RDF>
      <cc:Work
         rdf:about="">
        <dc:format>image/svg+xml</dc:format>
        <dc:type
           rdf:resource="http://purl.org/dc/dcmitype/StillImage" />
        <dc:title></dc:title>
      </cc:Work>
    </rdf:RDF>
  </metadata>
  <g
     inkscape:label="Layer 1"
     inkscape:groupmode="layer"
     id="layer1"
     transform="translate(-21.93474,-238.84424)">
    <path
       style="color:#000000;fill:#e8eaed;fill-opacity:1;stroke:#000000;stroke-width:1;stroke-linecap:butt;stroke-linejoin:miter;stroke-miterlimit:4;stroke-opacity:1;stroke-dasharray:3, 3;stroke-dashoffset:0;marker:none;visibility:visible;display:inline;overflow:visible;enable-background:accumulate"
       d="m 95.964492,246.26045 c -10.871676,3.00281 -21.721879,7.10861 -33.163435,6.94208 -10.742015,5.26841 -14.372334,18.20428 -14.432699,29.3167 4.249822,10.69496 4.607791,22.61004 2.503545,33.82882 6.753349,21.64432 25.131708,36.21213 39.255848,52.94072 12.546429,9.93326 25.335489,22.76322 42.515719,22.61604 11.5302,0.64512 22.02987,5.84484 33.1894,7.96707 14.08322,2.03562 28.98008,2.06466 42.49237,-2.76421 18.58823,-9.39371 27.19602,-32.19905 24.99878,-52.08073 -4.07183,-16.58489 -17.31348,-29.27108 -31.42926,-37.94823 -8.91684,-5.58724 -16.91857,-13.40227 -19.68891,-23.8615 -5.87373,-14.91363 -12.60182,-32.30565 -28.8339,-38.50413 -15.98602,-7.16339 -34.74802,-7.0643 -50.8295,-0.26613 -2.18107,0.6453 -4.369625,1.2676 -6.577958,1.8135 z"
       id="path4086" />
    <path
       style="color:#000000;fill:#e8eaed;fill-opacity:1;stroke:#000000;stroke-width:1;stroke-linecap:butt;stroke-linejoin:miter;stroke-miterlimit:4;stroke-opacity:1;stroke-dasharray:3, 3;stroke-dashoffset:0;marker:none;visibility:visible;display:inline;overflow:visible;enable-background:accumulate"
       d="m 151.52288,428.08791 c -30.95718,0.6417 -62.232707,6.31224 -92.990206,0.2368 -22.871723,-0.16134 -40.876922,24.91205 -34.961989,46.65699 3.446617,18.28669 16.197902,32.98362 29.289796,45.41807 9.020959,7.06391 20.909111,6.90445 31.689024,8.29874 20.608675,3.98616 40.077445,13.91347 61.340655,14.21812 19.91808,-1.83021 40.89701,-12.48585 48.51946,-31.96462 9.61807,-23.38861 2.64822,-52.70108 -17.44862,-68.39615 -7.34798,-6.51977 -16.03751,-11.57165 -25.43812,-14.46795 z"
       id="path4108" />
    <path
       style="color:#000000;fill:#e8eaed;fill-opacity:1;stroke:#000000;stroke-width:1;stroke-linecap:butt;stroke-linejoin:miter;stroke-miterlimit:4;stroke-opacity:1;stroke-dasharray:3, 3;stroke-dashoffset:0;marker:none;visibility:visible;display:inline;overflow:visible;enable-background:accumulate"
       d="m 393.95949,364.4483 c -24.39884,3.1718 -50.57543,1.46123 -72.72645,13.92623 -18.30517,13.80256 -22.41853,38.11403 -36.88156,54.9784 -14.62711,28.76367 -7.90051,64.04488 8.7573,90.42983 11.06546,18.75401 34.00715,32.04752 55.94033,26.10561 19.31813,-3.37841 38.94855,-8.32198 58.66606,-5.39863 16.9411,-1.35014 28.73787,-17.92736 30.09884,-33.92153 8.72549,-35.7072 6.9473,-74.14283 -5.74786,-108.6673 -7.87468,-16.35824 -21.38545,-30.16268 -38.10666,-37.45261 z"
       id="path4160" />
    <path
       sodipodi:type="arc"
       style="color:#000000;fill:#000000;fill-opacity:1;stroke:none;stroke-width:1;marker:none;visibility:visible;display:inline;overflow:visible;enable-background:accumulate"
       id="path2816"
       sodipodi:cx="167.14285"
       sodipodi:cy="435.21933"
       sodipodi:rx="5.7142854"
       sodipodi:ry="5.7142854"
       d="m 172.85714,435.21933 c 0,3.15591 -2.55837,5.71429 -5.71429,5.71429 -3.15591,0 -5.71428,-2.55838 -5.71428,-5.71429 0,-3.15591 2.55837,-5.71429 5.71428,-5.71429 3.15592,0 5.71429,2.55838 5.71429,5.71429 z"
       transform="translate(-47.389763,-135.46377)" />
    <path
       style="color:#000000;fill:none;stroke:#000000;stroke-width:2;stroke-linecap:butt;stroke-linejoin:miter;stroke-miterlimit:4;stroke-opacity:1;stroke-dasharray:none;stroke-dashoffset:0;marker:none;visibility:visible;display:inline;overflow:visible;enable-background:accumulate"
       d="M 119.39595,299.75557 162.2531,328.327"
       id="path3590" />
    <path
       style="color:#000000;fill:none;stroke:#000000;stroke-width:2;stroke-linecap:butt;stroke-linejoin:miter;stroke-miterlimit:4;stroke-opacity:1;stroke-dasharray:none;stroke-dashoffset:0;marker:none;visibility:visible;display:inline;overflow:visible;enable-background:accumulate"
       d="m 176.47423,473.36512 -22.85714,34.28572 -40,-21.42858"
       id="path3592" />
    <path
       style="color:#000000;fill:none;stroke:#000000;stroke-width:2;stroke-linecap:butt;stroke-linejoin:miter;stroke-miterlimit:4;stroke-opacity:1;stroke-dasharray:none;stroke-dashoffset:0;marker:none;visibility:visible;display:inline;overflow:visible;enable-background:accumulate"
       d="m 357.22336,398.47386 -32.14286,37.14286 45,25.71428 -55,16.42858 10,-42.85715"
       id="path3596" />
    <path
       transform="translate(-5.2469035,-107.60662)"
       d="m 172.85714,435.21933 c 0,3.15591 -2.55837,5.71429 -5.71429,5.71429 -3.15591,0 -5.71428,-2.55838 -5.71428,-5.71429 0,-3.15591 2.55837,-5.71429 5.71428,-5.71429 3.15592,0 5.71429,2.55838 5.71429,5.71429 z"
       sodipodi:ry="5.7142854"
       sodipodi:rx="5.7142854"
       sodipodi:cy="435.21933"
       sodipodi:cx="167.14285"
       id="path3598"
       style="color:#000000;fill:#000000;fill-opacity:1;stroke:none;stroke-width:1;marker:none;visibility:visible;display:inline;overflow:visible;enable-background:accumulate"
       sodipodi:type="arc" />
    <path
       sodipodi:type="arc"
       style="color:#000000;fill:#000000;fill-opacity:1;stroke:none;stroke-width:1;marker:none;visibility:visible;display:inline;overflow:visible;enable-background:accumulate"
       id="path3600"
       sodipodi:cx="167.14285"
       sodipodi:cy="435.21933"
       sodipodi:rx="5.7142854"
       sodipodi:ry="5.7142854"
       d="m 172.85714,435.21933 c 0,3.15591 -2.55837,5.71429 -5.71429,5.71429 -3.15591,0 -5.71428,-2.55838 -5.71428,-5.71429 0,-3.15591 2.55837,-5.71429 5.71428,-5.71429 3.15592,0 5.71429,2.55838 5.71429,5.71429 z"
       transform="translate(-53.229154,51.492399)" />
    <path
       transform="translate(-13.328128,72.705602)"
       d="m 172.85714,435.21933 c 0,3.15591 -2.55837,5.71429 -5.71429,5.71429 -3.15591,0 -5.71428,-2.55838 -5.71428,-5.71429 0,-3.15591 2.55837,-5.71429 5.71428,-5.71429 3.15592,0 5.71429,2.55838 5.71429,5.71429 z"
       sodipodi:ry="5.7142854"
       sodipodi:rx="5.7142854"
       sodipodi:cy="435.21933"
       sodipodi:cx="167.14285"
       id="path3602"
       style="color:#000000;fill:#000000;fill-opacity:1;stroke:none;stroke-width:1;marker:none;visibility:visible;display:inline;overflow:visible;enable-background:accumulate"
       sodipodi:type="arc" />
    <path
       sodipodi:type="arc"
       style="color:#000000;fill:#000000;fill-opacity:1;stroke:none;stroke-width:1;marker:none;visibility:visible;display:inline;overflow:visible;enable-background:accumulate"
       id="path3604"
       sodipodi:cx="167.14285"
       sodipodi:cy="435.21933"
       sodipodi:rx="5.7142854"
       sodipodi:ry="5.7142854"
       d="m 172.85714,435.21933 c 0,3.15591 -2.55837,5.71429 -5.71429,5.71429 -3.15591,0 -5.71428,-2.55838 -5.71428,-5.71429 0,-3.15591 2.55837,-5.71429 5.71428,-5.71429 3.15592,0 5.71429,2.55838 5.71429,5.71429 z"
       transform="translate(8.8952307,38.360419)" />
    <path
       transform="translate(190.21762,-37.401022)"
       d="m 172.85714,435.21933 c 0,3.15591 -2.55837,5.71429 -5.71429,5.71429 -3.15591,0 -5.71428,-2.55838 -5.71428,-5.71429 0,-3.15591 2.55837,-5.71429 5.71428,-5.71429 3.15592,0 5.71429,2.55838 5.71429,5.71429 z"
       sodipodi:ry="5.7142854"
       sodipodi:rx="5.7142854"
       sodipodi:cy="435.21933"
       sodipodi:cx="167.14285"
       id="path3606"
       style="color:#000000;fill:#000000;fill-opacity:1;stroke:none;stroke-width:1;marker:none;visibility:visible;display:inline;overflow:visible;enable-background:accumulate"
       sodipodi:type="arc" />
    <path
       sodipodi:type="arc"
       style="color:#000000;fill:#000000;fill-opacity:1;stroke:none;stroke-width:1;marker:none;visibility:visible;display:inline;overflow:visible;enable-background:accumulate"
       id="path3608"
       sodipodi:cx="167.14285"
       sodipodi:cy="435.21933"
       sodipodi:rx="5.7142854"
       sodipodi:ry="5.7142854"
       d="m 172.85714,435.21933 c 0,3.15591 -2.55837,5.71429 -5.71429,5.71429 -3.15591,0 -5.71428,-2.55838 -5.71428,-5.71429 0,-3.15591 2.55837,-5.71429 5.71428,-5.71429 3.15592,0 5.71429,2.55838 5.71429,5.71429 z"
       transform="translate(157.89274,0.984775)" />
    <path
       transform="translate(147.79121,42.401029)"
       d="m 172.85714,435.21933 c 0,3.15591 -2.55837,5.71429 -5.71429,5.71429 -3.15591,0 -5.71428,-2.55838 -5.71428,-5.71429 0,-3.15591 2.55837,-5.71429 5.71428,-5.71429 3.15592,0 5.71429,2.55838 5.71429,5.71429 z"
       sodipodi:ry="5.7142854"
       sodipodi:rx="5.7142854"
       sodipodi:cy="435.21933"
       sodipodi:cx="167.14285"
       id="path3610"
       style="color:#000000;fill:#000000;fill-opacity:1;stroke:none;stroke-width:1;marker:none;visibility:visible;display:inline;overflow:visible;enable-background:accumulate"
       sodipodi:type="arc" />
    <path
       sodipodi:type="arc"
       style="color:#000000;fill:#000000;fill-opacity:1;stroke:none;stroke-width:1;marker:none;visibility:visible;display:inline;overflow:visible;enable-background:accumulate"
       id="path3612"
       sodipodi:cx="167.14285"
       sodipodi:cy="435.21933"
       sodipodi:rx="5.7142854"
       sodipodi:ry="5.7142854"
       d="m 172.85714,435.21933 c 0,3.15591 -2.55837,5.71429 -5.71429,5.71429 -3.15591,0 -5.71428,-2.55838 -5.71428,-5.71429 0,-3.15591 2.55837,-5.71429 5.71428,-5.71429 3.15592,0 5.71429,2.55838 5.71429,5.71429 z"
       transform="translate(202.84452,26.238588)" />
    <text
       xml:space="preserve"
       style="font-size:18px;font-style:normal;font-variant:normal;font-weight:bold;font-stretch:normal;text-align:center;text-anchor:middle;fill:#000000;fill-opacity:1;stroke:none;font-family:DejaVu Sans;-inkscape-font-specification:Bitstream Charter Bold"
       x="111.11678"
       y="281.61578"
       id="text3614"><tspan
         sodipodi:role="line"
         id="tspan3616"
         x="111.11678"
         y="281.61578">muon</tspan></text>
    <text
       id="text3618"
       y="357.37723"
       x="178.797"
       style="font-size:18px;font-style:normal;font-variant:normal;font-weight:bold;font-stretch:normal;text-align:center;text-anchor:middle;fill:#000000;fill-opacity:1;stroke:none;font-family:DejaVu Sans;-inkscape-font-specification:Bitstream Charter Bold"
       xml:space="preserve"><tspan
         y="357.37723"
         x="178.797"
         id="tspan3620"
         sodipodi:role="line">muon</tspan></text>
    <text
       xml:space="preserve"
       style="font-size:18px;font-style:normal;font-variant:normal;font-weight:bold;font-stretch:normal;text-align:center;text-anchor:middle;fill:#000000;fill-opacity:1;stroke:none;font-family:DejaVu Sans;-inkscape-font-specification:Bitstream Charter Bold"
       x="85.862968"
       y="464.4534"
       id="text3622"><tspan
         sodipodi:role="line"
         id="tspan3624"
         x="85.862968"
         y="464.4534">3 muons</tspan></text>
    <text
       xml:space="preserve"
       style="font-size:18px;font-style:normal;font-variant:normal;font-weight:bold;font-stretch:normal;text-align:center;text-anchor:middle;fill:#000000;fill-opacity:1;stroke:none;font-family:DejaVu Sans;-inkscape-font-specification:Bitstream Charter Bold"
       x="375.77676"
       y="512.94073"
       id="text3626"><tspan
         sodipodi:role="line"
         id="tspan3628"
         x="375.77676"
         y="512.94073">4 muons</tspan></text>
    <text
       xml:space="preserve"
       style="font-size:18px;font-style:normal;font-variant:normal;font-weight:bold;font-stretch:normal;text-align:center;text-anchor:middle;fill:#000000;fill-opacity:1;stroke:none;font-family:DejaVu Sans;-inkscape-font-specification:Bitstream Charter Bold"
       x="290.92392"
       y="280.60565"
       id="text3630"><tspan
         sodipodi:role="line"
         id="tspan3632"
         x="290.92392"
         y="280.60565">&quot;closeness&quot; relation</tspan></text>
    <path
       style="color:#000000;fill:none;stroke:#000000;stroke-width:1.5;stroke-linecap:butt;stroke-linejoin:miter;stroke-miterlimit:4;stroke-opacity:1;stroke-dasharray:none;stroke-dashoffset:0;marker:none;marker-end:url(#Arrow1Mend);visibility:visible;display:inline;overflow:visible;enable-background:accumulate"
       d="m 221.22341,285.6564 c -11.56262,11.67657 -46.809,3.99842 -71.72084,23.23351"
       id="path3634"
       sodipodi:nodetypes="cc" />
    <text
       xml:space="preserve"
       style="font-size:18px;font-style:normal;font-variant:normal;font-weight:bold;font-stretch:normal;text-align:start;text-anchor:start;fill:#000000;fill-opacity:1;stroke:none;font-family:DejaVu Sans;-inkscape-font-specification:Bitstream Charter Bold"
       x="503.05597"
       y="344.24524"
       id="text4219"><tspan
         sodipodi:role="line"
         id="tspan4221"
         x="503.05597"
         y="344.24524" /></text>
  </g>
</svg>
